<?xml version="1.0" encoding="utf-8"?>
<!-- Generator: Adobe Illustrator 16.0.0, SVG Export Plug-In . SVG Version: 6.00 Build 0)  -->
<!DOCTYPE svg PUBLIC "-//W3C//DTD SVG 1.1//EN" "http://www.w3.org/Graphics/SVG/1.1/DTD/svg11.dtd">
<svg version="1.1" id="Layer_1" xmlns="http://www.w3.org/2000/svg" xmlns:xlink="http://www.w3.org/1999/xlink" x="0px" y="0px"
	 width="1080px" height="1080px" viewBox="420 0 1080 1080" enable-background="new 420 0 1080 1080" xml:space="preserve">
<circle fill="#0575A5" cx="960" cy="540" r="540"/>
<path fill="#025E90" d="M1154.172,288.214l-18.132-18.132l-18.041,18.052l-18.209-18.122l-18.059,18.122l-18.117-18.122
	l-18.063,18.122l-18.203-18.122l-18.122,18.122l-18.052-18.122l-18.209,18.122l-18.121-18.122l-18.122,18.122l-18.132-18.122
	l-18.132,18.122l-18.048-18.122l-18.133,18.122l-18.121-18.122l-18.122,18.122l-18.132-18.122l-18.133,18.122l-18.127-18.122
	l-18.122,18.122l-18.059-18.122l-18.197,18.122v498.572c0,5.946,2.312,11.96,6.864,16.433l275.102,275.13
	c249.906-18.873,452.268-207.695,491.726-451.295L1154.172,288.214z"/>
<path fill="#CEE2F2" d="M1200.722,413.661v373.047c0,12.856-10.433,23.286-23.247,23.286c-12.867,0-23.317-10.427-23.317-23.286
	V413.661H1200.722z"/>
<path fill="#FFFFFF" d="M1154.157,786.715v-498.56L1136.029,270l-18.079,18.155L1099.773,270l-18.031,18.155L1063.577,270
	l-18.031,18.155L1027.371,270l-18.166,18.155L991.17,270l-18.176,18.155L954.815,270l-18.117,18.155L918.61,270l-18.171,18.155
	L882.404,270l-18.159,18.155L846.115,270l-18.084,18.155L809.853,270l-18.117,18.155L773.651,270l-18.155,18.155L737.444,270
	l-18.17,18.155v498.562c0,5.961,2.273,11.918,6.819,16.464c4.548,4.552,10.52,6.819,16.442,6.819h434.938
	C1164.611,809.994,1154.157,799.567,1154.157,786.715z"/>
<g>
	<rect x="751.235" y="552.42" fill="#CEE2F2" width="176.904" height="8.181"/>
	<rect x="751.235" y="578.987" fill="#CEE2F2" width="176.904" height="8.159"/>
	<rect x="751.235" y="605.502" fill="#CEE2F2" width="176.904" height="8.149"/>
	<rect x="751.235" y="632.016" fill="#CEE2F2" width="176.904" height="8.158"/>
	<rect x="751.235" y="658.585" fill="#CEE2F2" width="176.904" height="8.154"/>
	<rect x="751.235" y="685.098" fill="#CEE2F2" width="176.904" height="8.18"/>
	<rect x="751.235" y="711.612" fill="#CEE2F2" width="176.904" height="8.155"/>
</g>
<rect x="751.235" y="446.31" fill="#0684BA" width="176.904" height="87.761"/>
<g>
	<rect x="946.445" y="446.31" fill="#CEE2F2" width="176.94" height="8.149"/>
	<rect x="946.445" y="472.825" fill="#CEE2F2" width="176.94" height="8.148"/>
	<rect x="946.445" y="499.338" fill="#CEE2F2" width="176.94" height="8.165"/>
	<rect x="946.445" y="525.905" fill="#CEE2F2" width="176.94" height="8.18"/>
	<rect x="946.445" y="552.42" fill="#CEE2F2" width="176.94" height="8.181"/>
	<rect x="946.445" y="578.987" fill="#CEE2F2" width="176.94" height="8.159"/>
	<rect x="946.445" y="605.502" fill="#CEE2F2" width="176.94" height="8.149"/>
</g>
<rect x="946.445" y="632.016" fill="#0684BA" width="176.94" height="87.76"/>
<g>
	<rect x="954.545" y="653.508" fill="#FFFFFF" width="17.166" height="58.396"/>
	<rect x="978.468" y="687.258" fill="#FFFFFF" width="17.188" height="24.646"/>
	<rect x="1002.39" y="660.69" fill="#FFFFFF" width="17.215" height="51.229"/>
	<rect x="1026.313" y="670.68" fill="#FFFFFF" width="17.204" height="41.213"/>
	<rect x="1050.288" y="645.84" fill="#FFFFFF" width="17.172" height="66.07"/>
	<rect x="1074.21" y="700.595" fill="#FFFFFF" width="17.166" height="11.351"/>
	<rect x="1098.132" y="658.585" fill="#FFFFFF" width="17.184" height="53.353"/>
</g>
<g>
	<rect x="750.048" y="409.104" fill="#5D6D7E" width="373.302" height="3.922"/>
	<rect x="750.048" y="334.243" fill="#5D6D7E" width="373.302" height="3.908"/>
</g>
<g>
	<path fill="#FFBC00" d="M767.573,374.689h-13.157v12.202h14.664v3.666h-19.032v-33.846h18.278v3.666h-13.91v10.695h13.157V374.689z
		"/>
	<path fill="#FFBC00" d="M803.934,390.558l-4.318-7.482c-1.758-2.862-2.863-4.72-3.917-6.679h-0.1
		c-0.954,1.959-1.908,3.767-3.666,6.729l-4.067,7.432h-5.022l10.345-17.124l-9.943-16.722h5.072l4.47,7.934
		c1.255,2.21,2.209,3.917,3.113,5.725h0.151c0.954-2.009,1.808-3.564,3.063-5.725l4.62-7.934h5.022l-10.294,16.471l10.545,17.375
		H803.934z"/>
	<path fill="#FFBC00" d="M830.202,379.912l-3.515,10.646h-4.52l11.5-33.846h5.273l11.549,33.846h-4.67l-3.616-10.646H830.202z
		 M841.3,376.497l-3.314-9.742c-0.753-2.209-1.255-4.218-1.757-6.177h-0.101c-0.502,2.009-1.054,4.067-1.707,6.127l-3.315,9.792
		H841.3z"/>
	<path fill="#FFBC00" d="M894.635,375.693c-0.251-4.72-0.553-10.395-0.502-14.612h-0.151c-1.155,3.967-2.561,8.185-4.269,12.855
		l-5.976,16.42h-3.314l-5.474-16.119c-1.607-4.771-2.962-9.14-3.917-13.156h-0.101c-0.101,4.218-0.352,9.893-0.653,14.964
		l-0.904,14.513h-4.168l2.36-33.846h5.574l5.775,16.37c1.406,4.168,2.562,7.884,3.415,11.399h0.151
		c0.854-3.415,2.059-7.131,3.565-11.399l6.026-16.37h5.574l2.109,33.846h-4.268L894.635,375.693z"/>
	<path fill="#FFBC00" d="M937.878,375.342v3.265h-12.403v-3.265H937.878z"/>
	<path fill="#FFBC00" d="M953.85,357.113c2.109-0.352,4.871-0.653,8.386-0.653c4.319,0,7.482,1.005,9.491,2.813
		c1.858,1.607,2.963,4.067,2.963,7.081c0,3.063-0.904,5.473-2.611,7.23c-2.311,2.461-6.076,3.716-10.345,3.716
		c-1.306,0-2.511-0.05-3.515-0.301v13.559h-4.369V357.113z M958.218,373.434c0.954,0.251,2.159,0.352,3.616,0.352
		c5.272,0,8.486-2.561,8.486-7.231c0-4.469-3.163-6.628-7.984-6.628c-1.908,0-3.364,0.15-4.118,0.352V373.434z"/>
	<path fill="#FFBC00" d="M996.689,379.912l-3.517,10.646h-4.519l11.499-33.846h5.274l11.549,33.846h-4.67l-3.616-10.646H996.689z
		 M1007.786,376.497l-3.314-9.742c-0.753-2.209-1.255-4.218-1.757-6.177h-0.1c-0.502,2.009-1.055,4.067-1.709,6.127l-3.313,9.792
		H1007.786z"/>
	<path fill="#FFBC00" d="M1058.359,389.051c-1.957,0.703-5.824,1.858-10.394,1.858c-5.122,0-9.341-1.306-12.655-4.47
		c-2.913-2.812-4.721-7.331-4.721-12.604c0.051-10.093,6.98-17.475,18.33-17.475c3.917,0,6.979,0.854,8.436,1.557l-1.055,3.565
		c-1.808-0.804-4.067-1.456-7.482-1.456c-8.236,0-13.608,5.121-13.608,13.608c0,8.587,5.172,13.659,13.056,13.659
		c2.862,0,4.822-0.402,5.826-0.904v-10.094h-6.879v-3.515h11.146V389.051z"/>
	<path fill="#FFBC00" d="M1093.215,374.689h-13.157v12.202h14.664v3.666h-19.032v-33.846h18.278v3.666h-13.91v10.695h13.157V374.689
		z"/>
	<path fill="#FFBC00" d="M1119.082,362.035h-0.102l-5.674,3.063l-0.854-3.364l7.132-3.816h3.766v32.641h-4.268V362.035z"/>
</g>
</svg>
